<?xml version="1.0" encoding="UTF-8"?><svg id="plusfile" xmlns="http://www.w3.org/2000/svg" width="6mm" height="6mm" viewBox="0 0 17.01 17.01"><path d="M4,1h6.95c.14,0,.28.06.37.16l3.05,3.37c.08.09.13.21.13.34v9.63c0,.83-.67,1.5-1.5,1.5H4c-.83,0-1.5-.67-1.5-1.5h0V2.5c0-.83.67-1.5,1.5-1.5Z" fill="none" stroke="#898e97"/><path d="M14.5,5h-3.5c-.28,0-.5-.22-.5-.5V1" fill="none" stroke="#898e97"/><path d="M8.5,5.5c.28,0,.5.22.5.5v2.5h2.5c.28,0,.5.22.5.5s-.22.5-.5.5h-2.5v2.5c0,.28-.22.5-.5.5s-.5-.22-.5-.5v-2.5h-2.5c-.28,0-.5-.22-.5-.5s.22-.5.5-.5h2.5v-2.5c0-.28.22-.5.5-.5Z" fill="#898e97" fill-rule="evenodd"/></svg>